<svg xmlns="http://www.w3.org/2000/svg" width="256" height="256" viewBox="0 0 64 64">
  <defs>
    <filter id="neon-glow" x="-50%" y="-50%" width="200%" height="200%">
      <feGaussianBlur in="SourceGraphic" stdDeviation="1.5" result="blur5"/>
      <feGaussianBlur in="SourceGraphic" stdDeviation="3" result="blur10"/>
      <feGaussianBlur in="SourceGraphic" stdDeviation="5" result="blur15"/>
      <feMerge>
        <feMergeNode in="blur5"/>
        <feMergeNode in="blur10"/>
        <feMergeNode in="blur15"/>
        <feMergeNode in="SourceGraphic"/>
      </feMerge>
    </filter>
  </defs>

  <g filter="url(#neon-glow)" fill="none" stroke="#A020F0" stroke-width="2.5" stroke-linecap="round" stroke-linejoin="round">
    <path d="M32,6 A26,26 0 0,1 54.5,19.5" stroke-dasharray="4,4" />
    <path d="M57.8,25.5 A26,26 0 1,1 32,6" stroke-dasharray="4,4" stroke-dashoffset="2" />

    <path d="M6,32 L22,32 L27,18 L35,46 L40,32 L58,32" />

    <path d="M48,16 A10,10 0 0,1 58,26" />
    <path d="M52,12 A14,14 0 0,1 62,22" />
    <path d="M44,20 A6,6 0 0,1 50,26" />
    <circle cx="46" cy="28" r="2" fill="#A020F0" stroke="none" />
  </g>
</svg>